<?xml version="1.0" encoding="utf-8"?>
<!-- Generator: Adobe Illustrator 18.0.0, SVG Export Plug-In . SVG Version: 6.00 Build 0)  -->
<!DOCTYPE svg PUBLIC "-//W3C//DTD SVG 1.1//EN" "http://www.w3.org/Graphics/SVG/1.1/DTD/svg11.dtd">
<svg version="1.1" id="Layer_1" xmlns="http://www.w3.org/2000/svg" xmlns:xlink="http://www.w3.org/1999/xlink" x="0px" y="0px"
	 viewBox="0 0 164 48.8" enable-background="new 0 0 164 48.8" xml:space="preserve">
<g>
	<path fill-rule="evenodd" clip-rule="evenodd" fill="#AFB0B2" d="M4.3,30.6C4.3,30.6,4.3,30.6,4.3,30.6c-0.4-2.2-2.1-4-4.3-4.4
		c2.2-0.5,4-2.2,4.3-4.5c0,0,0,0,0,0c0.3,2.2,1.9,3.9,4.1,4.3c0,0,0,0,0,0C6.4,26.8,4.9,28.5,4.3,30.6L4.3,30.6L4.3,30.6z"/>
	<path fill-rule="evenodd" clip-rule="evenodd" fill="#D5D7D7" d="M4.3,19.8C4.3,19.8,4.3,19.8,4.3,19.8c-0.4-2.2-2.1-4-4.3-4.4
		c2.2-0.5,4-2.2,4.3-4.5c0,0,0,0,0,0c0.3,2.2,1.9,3.9,4.1,4.3c0,0,0,0,0,0C6.4,16,4.9,17.7,4.3,19.8L4.3,19.8L4.3,19.8z"/>
	<path fill-rule="evenodd" clip-rule="evenodd" fill="#52A7DD" d="M4.3,8.9C4.3,8.9,4.3,8.9,4.3,8.9C3.9,6.7,2.1,4.9,0,4.5
		C2.2,4,4,2.3,4.3,0c0,0,0,0,0,0C4.7,2.3,6.3,4,8.5,4.4c0,0,0,0,0,0C6.4,5.1,4.9,6.8,4.3,8.9L4.3,8.9L4.3,8.9z"/>
	<path fill-rule="evenodd" clip-rule="evenodd" fill="#52A7DD" d="M15.1,19.8C15.1,19.8,15.1,19.8,15.1,19.8c-0.4-2.2-2.1-4-4.3-4.4
		c2.2-0.5,4-2.2,4.3-4.5c0,0,0,0,0,0c0.3,2.2,1.9,3.9,4.1,4.3c0,0,0,0,0,0C17.2,16,15.7,17.7,15.1,19.8L15.1,19.8L15.1,19.8z"/>
	<path fill-rule="evenodd" clip-rule="evenodd" fill="#AFB0B2" d="M15.1,8.9C15.1,8.9,15.1,8.9,15.1,8.9c-0.4-2.2-2.1-4-4.3-4.4
		c2.2-0.5,4-2.2,4.3-4.5c0,0,0,0,0,0c0.3,2.2,1.9,3.9,4.1,4.3c0,0,0,0,0,0C17.2,5.1,15.7,6.8,15.1,8.9L15.1,8.9L15.1,8.9z"/>
	<path fill-rule="evenodd" clip-rule="evenodd" fill="#D5D7D7" d="M26,8.9C26,8.9,26,8.9,26,8.9c-0.4-2.2-2.1-4-4.3-4.4
		C23.9,4,25.6,2.3,26,0c0,0,0,0,0,0c0.3,2.2,1.9,3.9,4.1,4.3c0,0,0,0,0,0C28,5.1,26.6,6.8,26,8.9L26,8.9L26,8.9z"/>
	<path fill-rule="evenodd" clip-rule="evenodd" fill="#52A7DD" d="M47.3,45l-1-1.9l-0.1-0.1c0,0-0.1,0-0.1,0c-0.1,0-0.2,0.1-0.2,0.1
		c-0.8,0.8-1.6,1.6-2.4,2.4c0,0,0,0.1,0,0.2c0,0.1,0,0.1,0.1,0.1c1.8,0.9,3.5,1.7,5.3,2.6c0,0,0.1,0,0.1,0c0,0,0.1,0,0.1,0
		c0-0.1,0-0.1,0-0.2C48.5,47.2,47.9,46.1,47.3,45L47.3,45L47.3,45z M45.7,42.8c0.1-0.1,0.1-0.1,0.2-0.2c0.1-0.1,0.1-0.3,0-0.4
		c-0.4-0.8-0.8-1.5-1.2-2.3c-0.7-0.6-1.3-1.3-2-1.9c0,0-0.1,0-0.1,0c0,0-0.1,0-0.1,0.1c-1.3,1.4-2.6,2.8-4,4c-0.1,0.1,0,0.2,0.1,0.3
		c0.7,0.7,1.4,1.3,2.1,1.9c0.8,0.4,1.5,0.8,2.3,1.2c0.1,0,0.1,0,0.2,0c0.1-0.1,0.3-0.2,0.4-0.4C44.2,44.4,44.9,43.6,45.7,42.8
		L45.7,42.8L45.7,42.8z M34.9,39.6c-0.4-0.4-0.8-0.8-1.2-1.2c0,0-0.1,0-0.1,0c-0.1,0-0.1,0.1-0.2,0.1c-0.5,0.4-1,0.8-1.5,1.3
		c0,0-0.1,0.1-0.1,0.1c0,0.1,0,0.1,0.1,0.1c1.7,0.8,3.4,1.7,5.1,2.6c0.1,0,0.2,0,0.2,0c0.1-0.1,0.2-0.2,0.3-0.3c0,0,0-0.1,0-0.1
		c0,0,0-0.1-0.1-0.1C36.6,41.2,35.7,40.4,34.9,39.6L34.9,39.6L34.9,39.6z M41.5,38.4c0.2-0.2,0.4-0.4,0.6-0.6c0.1-0.1,0.1-0.2,0-0.3
		c-1.2-1.2-2.5-2.5-3.7-3.7c0,0-0.1-0.1-0.2,0c-0.1,0-0.2,0.1-0.2,0.2c-1.2,1.4-2.5,2.7-3.9,3.9c-0.1,0.1-0.1,0.3,0,0.4
		c1.2,1.2,2.5,2.4,3.7,3.6c0.1,0,0.1,0,0.2,0C39.2,40.7,40.4,39.6,41.5,38.4L41.5,38.4L41.5,38.4z M32.5,37.3
		c-1.1-1.1-2.2-2.2-3.3-3.2c0,0-0.1,0-0.2,0c-0.3,0.2-0.6,0.5-0.9,0.8c-0.7,0.7-1.5,1.3-2.3,1.9c0,0-0.1,0.1-0.1,0.1
		c0,0,0,0.1,0,0.1c0.1,0.1,0.2,0.2,0.4,0.3l4.8,2.4c0.1,0,0.1,0,0.2,0c0.2-0.2,0.4-0.3,0.6-0.5c0.4-0.3,0.8-0.7,1.2-1.1
		c0,0,0.1-0.1,0.1-0.2c0-0.1,0-0.1-0.1-0.2C32.9,37.6,32.7,37.5,32.5,37.3L32.5,37.3L32.5,37.3z M37,34.3c0.3-0.3,0.5-0.5,0.7-0.8
		c0,0,0.1-0.1,0-0.2c0-0.1-0.1-0.1-0.1-0.2c-1.2-1.2-2.4-2.4-3.7-3.6c-0.1-0.1-0.1-0.1-0.2,0c-0.1,0.1-0.3,0.2-0.4,0.4
		c-1.2,1.3-2.4,2.5-3.7,3.7c-0.1,0.1-0.1,0.2,0,0.3l3.8,3.7c0.1,0,0.2,0,0.3-0.1C34.9,36.5,35.9,35.4,37,34.3L37,34.3L37,34.3z
		 M41.6,33.9c-0.4-0.8-0.8-1.6-1.3-2.4c0,0,0-0.1-0.1-0.1c0,0,0,0,0,0c0,0,0,0,0,0c0,0-0.1,0-0.1,0.1l-1.4,1.7c0,0,0,0.1-0.1,0.1
		c0,0,0,0.1,0,0.1c0,0.1,0.1,0.1,0.2,0.2c1.2,1.2,2.4,2.4,3.7,3.6c0,0,0.1,0,0.1,0c0.1-0.1,0.3-0.2,0.4-0.4c0-0.1,0-0.1,0-0.2
		C42.5,35.7,42,34.8,41.6,33.9L41.6,33.9L41.6,33.9z M28.6,33.9c0.1-0.1,0.1-0.1,0.1-0.2c0-0.1,0-0.2-0.1-0.2
		c-1.2-1.2-2.4-2.4-3.6-3.5c-0.1-0.1-0.3-0.1-0.4,0c-1.4,1.3-2.8,2.4-4.3,3.6c-0.1,0.1-0.1,0.2,0,0.2c0.1,0.2,0.3,0.3,0.5,0.5
		c0.4,0.5,0.9,0.8,1.4,1c1,0.5,2,1,2.9,1.5c0.1,0,0.2,0,0.3,0C26.5,35.8,27.5,34.9,28.6,33.9L28.6,33.9L28.6,33.9z M23.1,30.7
		c0.4-0.4,0.9-0.7,1.3-1.1c0,0,0.1-0.1,0.1-0.1c0,0,0-0.1,0-0.1c0-0.1-0.1-0.1-0.1-0.2c-1.2-1.2-2.4-2.4-3.7-3.6c0,0-0.1,0-0.1-0.1
		c0,0-0.1,0-0.1,0c-0.2,0.1-0.3,0.3-0.5,0.4c-1.3,1.1-2.6,2.2-4,3.2c-0.1,0.1-0.1,0.2,0,0.3c1.3,1.2,2.5,2.4,3.8,3.6
		c0,0,0.1,0.1,0.1,0.1c0,0,0.1,0,0.1,0C21,32.4,22,31.5,23.1,30.7L23.1,30.7L23.1,30.7z M32.4,30.2c0.3-0.3,0.6-0.7,0.9-1
		c0,0,0-0.1,0-0.1c0-0.1-0.1-0.2-0.2-0.2c-1.2-1.2-2.4-2.4-3.6-3.5c0,0-0.1,0-0.1-0.1c0,0-0.1,0-0.1,0c-0.1,0-0.1,0.1-0.1,0.2
		c-1.3,1.4-2.6,2.7-3.9,4c0,0-0.1,0.1-0.1,0.1c0,0,0,0.1,0.1,0.1c1.2,1.2,2.5,2.5,3.8,3.7c0.1,0.1,0.2,0.1,0.3,0
		C30.4,32.3,31.4,31.2,32.4,30.2L32.4,30.2L32.4,30.2z M39.5,29.9c-0.7-1.4-1.5-2.8-2.2-4.2c0-0.1-0.1-0.1-0.2-0.1
		c-0.1,0-0.1,0-0.2,0.1c-0.9,1.1-1.8,2.2-2.7,3.2c0,0-0.1,0.1-0.1,0.2c0,0,0,0.1,0.1,0.1c1.2,1.2,2.5,2.4,3.7,3.6
		c0.1,0.1,0.2,0.1,0.3,0.1c0.1,0,0.1-0.1,0.1-0.1c0.5-0.6,1-1.1,1.5-1.7c0.1-0.1,0.1-0.2,0-0.4L39.5,29.9L39.5,29.9L39.5,29.9z
		 M18.8,26.3c0.4-0.3,0.8-0.7,1.2-1.1c0,0,0-0.1,0-0.1c0-0.1-0.1-0.1-0.2-0.2c-0.7-0.7-1.5-1.5-2.3-2.2c-0.1-0.1-0.2-0.1-0.2,0
		c-0.3,0.2-0.6,0.5-0.9,0.8c-1.1,1-2.3,1.9-3.5,2.8c-0.1,0.1-0.1,0.2-0.1,0.3c0,0.1,0.1,0.1,0.1,0.1c0.7,0.7,1.5,1.5,2.2,2.2
		c0.1,0.1,0.3,0.1,0.4,0C16.7,28.1,17.8,27.2,18.8,26.3L18.8,26.3L18.8,26.3z M27.9,26.1c0.4-0.4,0.7-0.8,1.1-1.2c0,0,0-0.1,0-0.2
		c0,0-0.1-0.1-0.1-0.1c-1.2-1.2-2.5-2.4-3.8-3.6c-0.1,0-0.2,0-0.2,0c-1.3,1.4-2.6,2.7-4,4c-0.1,0.1-0.1,0.1,0,0.2
		c0.2,0.2,0.3,0.4,0.5,0.6c1.1,1,2.2,2.1,3.2,3.1c0.1,0.1,0.2,0.1,0.3,0C26,28,27,27.1,27.9,26.1L27.9,26.1L27.9,26.1z M36.5,25.4
		c0.1-0.1,0.2-0.2,0.3-0.4c0.1-0.1,0.1-0.1,0-0.2c-0.6-1.1-1.1-2.2-1.7-3.3c-0.4-0.5-0.9-0.9-1.4-1.4c-0.1-0.1-0.3,0-0.3,0.1
		c-1.1,1.5-2.3,3-3.6,4.4c0,0.1,0,0.1,0,0.2c0.3,0.4,0.7,0.7,1,1c0.9,0.9,1.8,1.8,2.8,2.7c0.1,0.1,0.2,0,0.3,0
		c0.4-0.4,0.8-0.9,1.1-1.3C35.6,26.6,36.1,26,36.5,25.4L36.5,25.4L36.5,25.4z M23.5,21.9l1.1-1.2c0.1-0.1,0.1-0.2,0-0.3
		c-0.8-0.8-1.6-1.6-2.4-2.3c-0.1,0-0.1,0-0.2,0c-0.2,0.1-0.3,0.3-0.5,0.5c-1.2,1.2-2.4,2.4-3.6,3.5c0,0-0.1,0.1-0.1,0.2
		c0,0.1,0.1,0.2,0.1,0.2c0.8,0.7,1.5,1.5,2.3,2.2c0,0,0.1,0.1,0.2,0.1c0,0,0.1,0,0.1-0.1C21.6,23.8,22.6,22.9,23.5,21.9L23.5,21.9
		L23.5,21.9z M32.1,21.3c0.4-0.5,0.7-1,1.1-1.4c0.1-0.1,0-0.2,0-0.3c-1.2-1.2-2.5-2.4-3.7-3.6c0,0-0.1-0.1-0.2-0.1c0,0-0.1,0-0.1,0
		C29.1,16,29,16,29,16.1c-1.1,1.5-2.2,2.9-3.5,4.2c0,0,0,0.1-0.1,0.1c0,0,0,0.1,0,0.1c0.2,0.2,0.4,0.4,0.6,0.6
		c1.1,1.1,2.1,2.1,3.2,3.1c0,0,0.1,0,0.2,0c0.1,0,0.1-0.1,0.2-0.2C30.5,23.2,31.3,22.3,32.1,21.3L32.1,21.3L32.1,21.3z M27.8,16.9
		c0.3-0.4,0.6-0.8,0.9-1.3c0-0.1,0-0.1,0-0.2l0-0.1c-0.1-0.1-0.2-0.2-0.3-0.3l-2.1-2c0,0-0.1-0.1-0.2,0c0,0-0.1,0.1-0.1,0.1
		c-1.1,1.5-2.3,3-3.6,4.4c-0.1,0.1,0,0.2,0,0.3c0.8,0.8,1.6,1.5,2.4,2.3c0,0,0.1,0.1,0.1,0.1c0,0,0.1,0,0.1,0
		c0.1-0.1,0.1-0.1,0.1-0.2C26.2,18.9,27,17.9,27.8,16.9L27.8,16.9L27.8,16.9z M13.8,28.1c-0.5-0.4-0.9-0.9-1.4-1.3
		c-0.1-0.1-0.1-0.1-0.2,0c-0.8,0.5-1.7,1.1-2.5,1.6c-0.1,0.1-0.3,0.1-0.4,0.2c0,0,0,0-0.1,0.1c0,0,0,0.1,0,0.1
		c0.1,0.1,0.3,0.2,0.4,0.2c1.1,0.5,2.2,1.1,3.2,1.6c0.1,0,0.2,0,0.3,0c0.6-0.4,1.1-0.7,1.6-1.2c0,0,0.1-0.1,0.1-0.1c0,0,0-0.1,0-0.1
		c0,0-0.1-0.1-0.1-0.1C14.5,28.7,14.1,28.4,13.8,28.1L13.8,28.1L13.8,28.1z M32.2,15.7c-0.4-0.7-0.7-1.4-1.1-2.1c0,0,0-0.1-0.1-0.1
		c0,0-0.1,0-0.1,0c-0.1,0.1-0.1,0.1-0.2,0.2c-0.3,0.5-0.7,1-1.1,1.5c0,0-0.1,0.1,0,0.2c0,0.1,0.1,0.2,0.2,0.2
		c1.2,1.2,2.4,2.4,3.7,3.6c0,0,0.1,0,0.2,0c0.1,0,0.2-0.1,0.2-0.2c0-0.1,0-0.2-0.1-0.3C33.2,17.7,32.7,16.7,32.2,15.7L32.2,15.7
		L32.2,15.7z M16.2,30.5c-0.3-0.3-0.5-0.5-0.8-0.7c-0.1-0.1-0.2-0.1-0.2,0c-0.5,0.3-1,0.7-1.4,1c0,0-0.1,0-0.1,0.1c0,0,0,0.1,0,0.1
		c0,0.1,0.1,0.1,0.2,0.2l5.1,2.5c0.1,0,0.2,0,0.2,0c0,0,0,0,0.1,0c0,0,0,0,0,0c0,0,0-0.1,0-0.1L16.2,30.5L16.2,30.5L16.2,30.5z
		 M30.1,11.8c-0.4-0.8-0.8-1.6-1.2-2.4c0-0.1-0.1-0.1-0.1-0.1c-0.1,0-0.1,0-0.2,0c0,0-0.1,0.1-0.1,0.1c-0.6,1-1.2,2-1.9,3
		c0,0.1,0,0.1,0,0.2c0.1,0.2,0.2,0.3,0.4,0.4c0.7,0.7,1.3,1.3,2,2c0,0,0.1,0.1,0.2,0.1c0,0,0.1,0,0.1,0c0.5-0.6,0.9-1.3,1.3-1.9
		c0-0.1,0-0.1,0-0.2c0-0.1-0.1-0.2-0.1-0.2C30.4,12.3,30.3,12,30.1,11.8L30.1,11.8L30.1,11.8z M33.8,20L33.8,20L33.8,20z M34.2,19.6
		l0.4,0.9l-0.7-0.6L34.2,19.6L34.2,19.6z M42.9,37.7L42.9,37.7L42.9,37.7z M43.3,37.4l0.4,0.9L43,37.6L43.3,37.4L43.3,37.4z
		 M37.7,42.8l0.9,0.4l-0.6-0.7L37.7,42.8L37.7,42.8z M19.6,33.9l0.7,0.4l-0.5-0.6L19.6,33.9L19.6,33.9z"/>
	<polygon fill-rule="evenodd" clip-rule="evenodd" fill="#52A7DD" points="59,21.8 64.8,21.8 64.8,19.6 59,19.6 59,16.5 69.5,16.5 
		69.5,14.3 56.1,14.3 56.1,27.3 59,27.3 59,21.8 	"/>
	<path fill-rule="evenodd" clip-rule="evenodd" fill="#52A7DD" d="M79.3,22.4h3.2l5.9,4.9h4l-6.2-4.9l2.3-0.1
		c1.6-0.1,2.4-1.3,2.4-2.5c0-1.4,0-2,0-3.2c-0.1-1.2-1.2-2.2-2.7-2.3l-11.9,0v13h2.9V22.4L79.3,22.4z M79.3,16.5l8.6,0
		c0.3,0,0.3,0.1,0.3,0.3c0,0.1,0,3.2,0,3.2l0,0l0,0c-0.2,0.1-8.3,0.1-8.8,0.1V16.5L79.3,16.5z"/>
	<path fill-rule="evenodd" clip-rule="evenodd" fill="#52A7DD" d="M114.8,27c0.4-0.2,0.7-0.5,0.9-0.9c0.1-0.3,0.2-0.5,0.2-0.8
		c0-0.9,0-8.8,0-9.1c-0.2-1.1-1.3-1.8-2.6-1.8l-8.9,0l-1.6,0c-0.7,0-1.3,0.2-1.8,0.6c-0.5,0.3-0.8,0.9-0.8,1.5c0,1.1,0,8.4,0,8.9
		c0.1,1.1,1.1,2,2.4,2l10.6,0C113.9,27.3,114.3,27.2,114.8,27L114.8,27z M103.2,16.5h9.8v8.5h-9.8V16.5L103.2,16.5z"/>
	<path fill-rule="evenodd" clip-rule="evenodd" fill="#52A7DD" d="M137.5,21.8v3.3h-8.9v-1.7l-2.9,0.6l0,1.2c0,0.3,0.1,0.7,0.2,1
		c0.3,0.7,1.2,1.2,2.1,1.2l10.1,0l0.8-0.1c0.5-0.2,1-0.5,1.3-0.9c0.2-0.3,0.3-0.6,0.3-0.9l0-3.6c0.1-0.7-0.3-1.4-0.9-1.9
		c-0.4-0.2-0.8-0.4-1.3-0.4l-9.2,0v-3h8.3v1.6l2.9-0.4l-0.1-1.7c-0.1-0.9-1-1.6-2.1-1.6l-9.7,0c-1.3,0-2.3,0.9-2.3,2l0,3.8
		c0,1,1.1,1.7,2.2,1.7L137.5,21.8L137.5,21.8z"/>
	<polygon fill-rule="evenodd" clip-rule="evenodd" fill="#52A7DD" points="153.3,16.5 153.3,27.3 156.3,27.3 156.3,16.5 162.4,16.5 
		162.4,14.3 147.1,14.3 147.1,16.5 153.3,16.5 	"/>
	<path fill-rule="evenodd" clip-rule="evenodd" fill="#B7B8BB" d="M146.7,43.4c0.1,1.3,1,1.6,1.6,1.5c0.5,0,1-0.1,1.4-0.4
		c0.4-0.2,0.8-0.5,1.2-0.8c0.4-0.3,0.8-0.6,1.2-0.9v-0.8L151,43c-0.4,0.3-0.9,0.6-1.4,0.9c-0.4,0.2-0.8,0.3-1.2,0.3
		c-0.2,0-0.5,0-0.6-0.2c-0.1-0.1-0.2-0.2-0.2-0.3c-0.1-0.2-0.1-0.5,0-0.7l0.1,0c0.5,0,1,0,1.5-0.2c0.5-0.1,0.9-0.3,1.3-0.6
		c0.5-0.4,1-0.9,1.1-1.6c0.1-0.5-0.1-0.9-0.6-1c-0.6-0.1-1.2,0-1.7,0.3c-1,0.5-2.1,1.4-2.4,2.5l-0.6,0.4c-0.4,0.3-0.8,0.5-1.2,0.8
		c-0.3,0.2-0.6,0.3-0.9,0.3c0.3-0.3,0.6-0.5,0.8-0.8c0.5-0.7,0.9-1.4,1-2.3c0-0.8-0.5-1.3-1.3-1.3c-0.9,0-1.5,0.6-2.1,1.2l0.4-1.1
		h-0.8l-0.4,1c0,0.1-0.2,0.2-0.3,0.3c-0.5,0.5-1.2,1-1.7,1.4v0l-0.7,0.5c-0.4,0.3-0.8,0.5-1.2,0.8c-0.3,0.2-0.6,0.3-0.9,0.3
		c0.3-0.3,0.6-0.5,0.8-0.8c0.5-0.7,0.9-1.4,1-2.3c0-0.8-0.5-1.3-1.3-1.3c-0.9,0-1.5,0.6-2.1,1.2l0.4-1.1h-0.8l-0.4,1
		c0,0.1-0.2,0.2-0.3,0.3c-0.5,0.5-1.2,1-1.7,1.4v0c-0.2,0.1-0.5,0.3-0.7,0.4c-0.1,0.1-0.3,0.1-0.4,0.1c0.2-0.3,0.4-0.6,0.5-0.9
		c0.1-0.3,0.2-0.5,0.2-0.8c0.1-0.4-0.1-1.1-0.7-1.1c-0.4,0-0.8,0.3-1,0.6c-0.5,0.7-0.6,1.7-0.1,2.4c-0.2,0.3-0.5,0.5-0.8,0.7
		c-0.2,0.1-0.4,0.2-0.7,0.2c-0.5,0-0.8-0.6-0.8-1c0-1,0.8-2.1,1.7-2.6c0.2-0.1,0.5-0.3,0.7-0.4c0.2-0.1,0.5-0.2,0.5-0.4
		c0-0.2-0.1-0.3-0.3-0.3c-0.1,0-0.2,0-0.4,0.1c-0.4,0.1-0.8,0.3-1.2,0.6c-0.6,0.4-1,0.8-1.4,1.4c-0.2,0.3-0.3,0.6-0.4,0.9l-0.9,0.7
		c-0.2,0.2-0.7,0.5-0.9,0.6l-0.4,0.2c-0.1,0-0.1,0.1-0.2,0.1c0,0,0,0,0,0l0-0.1l1.6-3.2l0.1-0.4c0.1-0.2,0.1-0.6-0.2-0.6
		c-0.2-0.1-0.4,0-0.6,0.1c-0.4,0.2-0.8,0.5-1.1,0.7c-1,0.8-2,1.6-2.9,2.4l2.1-4l1.3-2.5l0.3-0.6l0.3-0.6l0.1-0.2
		c0-0.1,0-0.3-0.1-0.4c-0.1-0.2-0.4-0.1-0.5,0c-0.2,0.2-0.3,0.4-0.4,0.7l-2.9,5.7c-0.3,0.3-0.5,0.6-0.8,0.8
		c-0.2,0.2-0.5,0.4-0.8,0.6v0.8c0.3-0.1,0.5-0.3,0.8-0.5l-0.5,0.9c-0.1,0.2-0.2,0.4-0.3,0.6c0,0.1,0,0.1-0.1,0.2
		c0,0.2,0.2,0.5,0.4,0.5c0.3,0,0.6-0.3,0.9-0.6c0.4-0.4,0.8-0.9,1.2-1.2c0.5-0.4,1-0.9,1.5-1.3c0.3-0.3,0.7-0.5,1-0.8
		c0.1,0,0.4-0.3,0.5-0.3c0,0-1.6,3.2-1.7,3.2c-0.2,0.3-0.3,0.6-0.1,0.9c0.2,0.3,0.5,0.1,0.8,0c0.4-0.2,0.8-0.4,1.2-0.7l1.3-0.9
		c0,0.2,0,0.4,0.1,0.6c0.2,0.7,0.7,1.1,1.4,1.1c0.4,0,0.7-0.1,1-0.3c0.4-0.3,0.8-0.6,1.1-0.9c0.8,0.1,1.3-0.3,1.9-0.7
		c0.2-0.1,0.4-0.3,0.6-0.4c0.2-0.1,0.4-0.3,0.5-0.4c-0.5,1.1-0.8,2-1.1,3.1c-0.3,0.8-0.5,1.6-0.7,2.5c-0.1,0.2-0.1,0.4-0.1,0.6
		c0,0.1,0,0.2,0.1,0.3c0.1,0.1,0.3,0.2,0.5,0.1c0.3-0.2,0.4-0.8,0.5-1.1c0.2-0.7,0.3-1.4,0.5-2.1c0.1-0.4,0.2-0.9,0.4-1.3
		c0.2-0.5,0.5-1.1,0.8-1.6c0.5-0.8,1.2-1.7,2-2.2c0.3-0.2,0.8-0.3,1.1-0.1c0.1,0.1,0.2,0.2,0.2,0.4c0,1-0.8,2.3-1.8,3
		c-0.2,0.1-0.4,0.2-0.7,0.2c-0.1,0-0.3,0-0.4,0c-0.2,0-0.3,0-0.5,0c-0.2,0-0.5,0.2-0.5,0.4c0,0.4,0.5,0.5,0.8,0.6
		c0.2,0,0.4,0,0.6-0.1c0.2-0.1,0.4-0.1,0.6-0.2l0.2,0c0.6,0,1.2-0.1,1.7-0.4c0.4-0.2,0.7-0.4,1.1-0.6c0.3-0.2,0.7-0.5,1-0.7
		c0.2-0.1,0.4-0.2,0.5-0.4c0.2-0.1,0.4-0.3,0.5-0.4c-0.5,1.1-0.8,2-1.1,3.1c-0.3,0.8-0.5,1.6-0.7,2.5c-0.1,0.2-0.1,0.4-0.1,0.6
		c0,0.1,0,0.2,0.1,0.3c0.1,0.1,0.3,0.2,0.5,0.1c0.3-0.2,0.4-0.8,0.5-1.1c0.2-0.7,0.3-1.4,0.5-2.1c0.1-0.4,0.2-0.9,0.4-1.3
		c0.2-0.5,0.5-1.1,0.8-1.6c0.5-0.8,1.2-1.7,2-2.2c0.3-0.2,0.8-0.3,1.1-0.1c0.1,0.1,0.2,0.2,0.2,0.4c0,1-0.8,2.3-1.8,3
		c-0.2,0.1-0.4,0.2-0.7,0.2c-0.1,0-0.3,0-0.4,0c-0.2,0-0.3,0-0.5,0c-0.2,0-0.5,0.2-0.5,0.4c0,0.4,0.5,0.5,0.8,0.6
		c0.2,0,0.4,0,0.6-0.1c0.2-0.1,0.4-0.1,0.6-0.2l0.2,0c1,0,2-0.4,2.8-1L146.7,43.4L146.7,43.4z M147.7,42.3c0.3-0.5,0.8-1,1.3-1.4
		c0.2-0.1,0.4-0.3,0.6-0.4c0.2-0.1,0.8-0.3,1-0.1c0.1,0,0.1,0.1,0.1,0.2c0,0.2-0.1,0.4-0.2,0.6c-0.6,0.7-1.5,1.1-2.4,1.1
		C147.9,42.3,147.8,42.3,147.7,42.3L147.7,42.3z M131,42.6c-0.1-0.2-0.1-0.4-0.1-0.6c0-0.3,0.1-0.6,0.3-0.9c0-0.1,0.1-0.1,0.2-0.1
		c0,0,0.1,0,0.1,0c0,0,0,0.1,0.1,0.1c0,0.2-0.1,0.4-0.2,0.6C131.3,42.1,131.1,42.3,131,42.6L131,42.6z"/>
	<path fill-rule="evenodd" clip-rule="evenodd" fill="#B7B8BB" d="M116.3,41.9c-0.5-0.1-1-0.1-1.5-0.1c-0.7,0-1.2,0.2-1.8,0.5
		c-0.5,0.3-0.8,0.6-0.8,1.2c0,0.5,0.4,0.9,0.9,1.1c0.3,0.2,0.7,0.3,1.1,0.3c0.4,0.1,0.8,0.1,1.2,0.1c0.5,0,1,0,1.6-0.1
		c1.2-0.2,3-1,2.9-2.5c0-0.3-0.1-0.6-0.2-0.8c-0.3-0.5-0.7-0.8-1.2-1c-0.4-0.2-0.8-0.4-1.1-0.5c-0.4-0.2-0.8-0.4-1.1-0.8
		c-0.5-0.6-0.3-1.2,0.2-1.7c0.4-0.4,0.8-0.7,1.3-1c0.7-0.4,1.5-0.7,2.3-0.8c0.1,0,0.4,0,0.5,0.1c0.2,0.1,0.2,0.5,0.1,0.7
		c-0.3,0.6-1.4,1.1-2.1,1.4c-0.5,0.2-1,0.3-1.5,0.3l-0.2,0.7c0.6-0.1,1.2-0.2,1.7-0.3c0.6-0.2,1.2-0.4,1.7-0.7
		c0.3-0.2,0.6-0.4,0.9-0.7c0.3-0.3,0.4-0.7,0.5-1c0-0.3-0.2-0.6-0.4-0.8c-0.3-0.2-0.7-0.3-1.1-0.3c-1.2,0-2.3,0.5-3.3,1.2
		c-0.5,0.4-1.1,0.9-1.4,1.6c-0.1,0.3-0.2,0.5-0.2,0.8c0,0.6,0.3,1.2,0.8,1.6c0.4,0.3,0.9,0.6,1.4,0.8c0.4,0.2,0.9,0.4,1.3,0.8
		c0.4,0.4,0.4,1.1,0,1.5c-0.2,0.3-0.5,0.5-0.8,0.6c-0.3,0.2-0.7,0.3-1.1,0.4c-0.4,0.1-0.9,0.1-1.3,0.1c-0.6,0-2,0-2.4-0.6
		c-0.1-0.1-0.1-0.2-0.1-0.3c0-0.2,0.2-0.4,0.4-0.5c0.5-0.3,1.2-0.4,1.8-0.4c0.6,0,1.7,0.2,2.4,0.3l0.3-0.7
		C117.3,42,116.8,41.9,116.3,41.9L116.3,41.9z"/>
	<path fill-rule="evenodd" clip-rule="evenodd" fill="#B7B8BB" d="M103.3,43.2c0,0.2,0,0.4,0.1,0.6c0.2,0.7,0.7,1.1,1.4,1.1
		c0.4,0,0.7-0.1,1-0.3c0.4-0.3,0.8-0.6,1.1-0.9c0.4,0.1,0.7,0,1.1-0.2c0.4-0.2,0.7-0.4,1.1-0.7v-0.8c-0.4,0.3-0.8,0.5-1.2,0.8
		c-0.1,0.1-0.3,0.1-0.4,0.1c0.2-0.3,0.4-0.6,0.5-0.9c0.1-0.3,0.2-0.5,0.2-0.8c0.1-0.4-0.1-1.1-0.7-1.1c-0.4,0-0.8,0.3-1,0.6
		c-0.5,0.7-0.6,1.7-0.1,2.4c-0.2,0.3-0.5,0.5-0.8,0.7c-0.2,0.1-0.4,0.2-0.7,0.2c-0.5,0-0.8-0.6-0.8-1c0-1,0.8-2.1,1.7-2.6
		c0.2-0.1,0.5-0.3,0.7-0.4c0.2-0.1,0.5-0.2,0.5-0.4c0-0.2-0.1-0.3-0.3-0.3c-0.1,0-0.2,0-0.4,0.1c-0.4,0.1-0.8,0.3-1.2,0.6
		c-0.6,0.4-1,0.8-1.4,1.4c-0.2,0.3-0.3,0.6-0.4,0.9l-1.4,0.9c-0.4,0.3-0.8,0.5-1.2,0.7c0,0-0.1,0-0.2,0.1c-0.1,0-0.1,0-0.1-0.1
		c0-0.1,0-0.1,0.1-0.2l2.1-4.7h1.1l0.3-0.6h-1.1l0.8-1.8c0.1-0.2,0.1-0.3,0.2-0.5c0.1-0.2,0.1-0.4,0-0.6c-0.2-0.2-0.4-0.1-0.5,0
		c-0.2,0.2-0.3,0.5-0.4,0.8l-0.9,2.1h-1.4l-0.3,0.6h1.4l-0.8,1.9c0,0-0.4,0.4-0.5,0.5c-0.4,0.3-0.8,0.7-1.3,1v0
		c-0.5,0.4-1.8,1.3-2.3,1.5c0,0,0,0,0,0l0.1-0.2l1.5-2.9l-0.8-0.1l-1,1.3c-0.4,0.5-0.8,1-1.3,1.5c-0.2,0.3-0.7,0.6-1.1,0.7
		c-0.2,0-0.4-0.1-0.5-0.2c-0.1-0.2-0.2-0.4-0.2-0.7c0-0.3,0.1-0.5,0.2-0.8c0.1-0.3,0.3-0.6,0.5-0.8c0.8-0.8,2-1.3,3.1-1.4
		c0.5,0,0.9,0.2,1.4,0.4l0-0.7c-0.4-0.3-0.9-0.4-1.4-0.4c-0.7,0-1.4,0.2-2,0.4c-1,0.4-2,1.2-2.5,2.2L92.2,43l-0.6,0.4L91,43.8
		c-0.1,0.1-0.2,0.1-0.3,0.2c0,0,0,0,0,0l0-0.1l1.7-4.5l0.4-0.9c0.2-0.5,0.5-1,0.7-1.5c0.2-0.5,0.6-1.5,0.6-2c0-0.2-0.2-0.4-0.4-0.4
		c-0.1,0-0.3,0.1-0.4,0.2c-0.1,0.2-0.2,0.4-0.3,0.7L90.9,41c0,0-0.2,0.2-0.2,0.3c-0.3,0.4-0.9,0.8-1.3,1.1l0,0L88.5,43
		c-0.4,0.3-0.9,0.6-1.4,0.9c-0.4,0.2-0.8,0.3-1.2,0.3c-0.2,0-0.5,0-0.6-0.2c-0.1-0.1-0.2-0.2-0.2-0.3C85,43.5,85,43.2,85,43l0.1,0
		c0.5,0,1,0,1.5-0.2c0.5-0.1,0.9-0.3,1.3-0.6c0.5-0.4,1-0.9,1.1-1.6c0.1-0.5-0.1-0.9-0.6-1c-0.6-0.1-1.2,0-1.7,0.3
		c-0.9,0.5-1.7,1.2-2.2,2.1c-0.3,0.6-0.4,1.2-0.2,1.8c0.2,0.7,0.9,1.1,1.6,1c0.5,0,1-0.1,1.4-0.4c0.4-0.2,0.8-0.5,1.2-0.8l1-0.7
		c0.3-0.2,0.6-0.4,0.9-0.6l-0.4,1c-0.1,0.2-0.2,0.4-0.2,0.6c0,0.1-0.1,0.2-0.1,0.4c0,0.1,0,0.3,0.1,0.4c0.2,0.2,0.6,0.1,0.8,0
		c0.3-0.2,0.7-0.4,1-0.6c0.5-0.3,0.9-0.6,1.4-1c0,0.5,0.1,0.9,0.4,1.2c0.5,0.6,1.4,0.6,2,0.1c0.4-0.3,0.6-0.5,0.9-0.9
		c-0.1,0.2-0.2,0.4-0.3,0.6c-0.1,0.2-0.1,0.4,0.1,0.5c0.1,0.1,0.2,0.1,0.4,0.1c0.2,0,0.3-0.1,0.4-0.2c0.4-0.2,0.8-0.5,1.2-0.7
		c0.5-0.3,0.9-0.6,1.4-1l0,0c0.2-0.1,0.3-0.2,0.5-0.3c0.1-0.1,0.3-0.2,0.4-0.3l-0.6,1.2L99.7,44c-0.1,0.1-0.1,0.3-0.1,0.4
		c0,0.3,0.1,0.5,0.4,0.5c0.3,0.1,0.5,0,0.8-0.1c0.2-0.1,0.3-0.1,0.5-0.2c0.3-0.2,0.6-0.3,0.9-0.5C102.6,43.8,102.9,43.5,103.3,43.2
		L103.3,43.2z M106.9,42.6c-0.1-0.2-0.1-0.4-0.1-0.6c0-0.3,0.1-0.6,0.3-0.9c0-0.1,0.1-0.1,0.2-0.1c0,0,0.1,0,0.1,0
		c0,0,0,0.1,0.1,0.1c0,0.2-0.1,0.4-0.2,0.6C107.2,42.1,107,42.3,106.9,42.6L106.9,42.6z M85.2,42.3c0.3-0.5,0.8-1,1.3-1.4
		c0.2-0.1,0.4-0.3,0.6-0.4c0.2-0.1,0.8-0.3,1-0.1c0.1,0,0.1,0.1,0.1,0.2c0,0.2-0.1,0.4-0.2,0.6c-0.6,0.7-1.5,1.1-2.4,1.1
		C85.4,42.3,85.3,42.3,85.2,42.3L85.2,42.3z"/>
	<path fill-rule="evenodd" clip-rule="evenodd" fill="#B7B8BB" d="M79.6,47.3C79.6,47.3,79.5,47.3,79.6,47.3l-0.1,0.2
		c0,0.1,0.1,0.3,0.2,0.3c0.6,0,1.4-1.2,1.6-1.6c0.4-0.7,0.8-1.4,1.1-2.1c0.4-0.8,0.7-1.5,1-2.3l0.6-0.7l0.1-0.2
		c0.2-0.3,0.2-0.5,0-0.7c-0.2-0.2-0.5-0.2-0.6,0c-0.2,0.2-0.4,0.4-0.5,0.7c-0.6,1.1-1.7,2.1-2.8,2.7c-0.2,0.1-0.4,0.2-0.7,0.3
		c-0.6,0.2-1.5,0.3-1.7-0.5c0-0.1-0.1-0.3-0.1-0.5c0-1.6,1.1-3.7,2.1-5c0.7-1,1.9-2,3.1-2.3c0.4-0.1,0.9-0.1,1.2,0.2
		c0.4,0.4,0.2,1.2-0.1,1.7c-0.3,0.4-0.6,0.7-1,1l0,0.7c0.3-0.2,0.6-0.3,0.9-0.5c0.3-0.2,0.5-0.4,0.7-0.7c0.3-0.4,0.5-1,0.5-1.5
		c0-0.4-0.1-0.9-0.4-1.2c-0.3-0.3-0.8-0.5-1.3-0.5c-0.4,0-0.7,0.1-1.1,0.2c-0.6,0.2-1.2,0.5-1.7,0.9c-0.6,0.4-1.1,0.9-1.5,1.5
		c-0.7,0.9-1.3,1.8-1.7,2.8c-0.4,1-0.6,1.7-0.7,2.7c0,0.5,0.1,0.9,0.4,1.3c0.3,0.4,0.8,0.6,1.3,0.6c0.3,0,0.6-0.1,0.8-0.1
		c0.4-0.1,0.9-0.4,1.3-0.6c0.4-0.2,0.7-0.5,1.1-0.8c-0.3,0.6-0.6,1.2-0.9,1.8c-0.3,0.5-0.6,1-1,1.4l0,0L79.6,47.3L79.6,47.3z"/>
	<path fill-rule="evenodd" clip-rule="evenodd" fill="#B7B8BB" d="M66.9,41.5c0.4,0,0.8,0.1,1.2,0.1c0.5,0.1,0.9,0.2,1.4,0.4
		c0.6,0.3,1.1,0.7,1.5,1.3l0,0c0,0.3-0.1,0.5-0.1,0.8c0,0.2,0,0.4,0.1,0.5c0.1,0.1,0.2,0.2,0.4,0.2c0.2,0,0.3-0.1,0.4-0.2
		c0.1-0.2,0.2-0.4,0.1-0.6l0-0.3l-0.1-0.4c0.4-1.5,0.9-3,1.4-4.6c0.3-0.8,0.5-1.7,0.8-2.5c0.1-0.4,0.3-1-0.1-1.3
		c-0.2-0.1-0.4-0.2-0.7-0.2c-0.3,0-0.6,0.1-0.9,0.2c-0.4,0.2-0.8,0.3-1.2,0.6c-0.4,0.3-0.8,0.6-1.2,0.9c-0.7,0.6-1.3,1.3-1.9,2
		c-0.6,0.7-1.2,1.5-1.8,2.3l-0.9,0c-0.3,0-0.5,0-0.8,0.1l-0.4,0.7l1.5-0.1c-0.4,0.6-0.7,1.2-1,1.8c-0.3,0.5-0.5,1-0.7,1.5h1
		c0.2-0.5,0.4-1,0.6-1.5C66.2,42.7,66.6,42.1,66.9,41.5L66.9,41.5z M67.4,40.8c0.4-0.6,0.9-1.2,1.4-1.7c0.4-0.5,0.8-0.9,1.3-1.4
		c0.6-0.6,1.7-1.6,2.6-1.9c0.1-0.1,0.5-0.2,0.7,0c0,0,0.1,0.1,0.1,0.2c0,0.2-0.1,0.3-0.1,0.5c-0.1,0.3-0.3,0.9-0.4,1.3l-1.6,4.8
		c-0.4-0.5-0.9-0.9-1.4-1.1C69.1,41,68.2,40.9,67.4,40.8L67.4,40.8z"/>
	<path fill-rule="evenodd" clip-rule="evenodd" fill="#52A7DD" d="M161.8,26.7c0-0.3,0.1-0.6,0.3-0.7s0.5-0.3,0.8-0.3
		c0.3,0,0.6,0.1,0.8,0.3c0.2,0.2,0.3,0.5,0.3,0.7c0,0.3-0.1,0.6-0.3,0.8c-0.2,0.2-0.5,0.3-0.8,0.3c-0.3,0-0.6-0.1-0.8-0.3
		C161.9,27.3,161.8,27,161.8,26.7L161.8,26.7z M162.9,27.6c0.2,0,0.4-0.1,0.6-0.3c0.2-0.2,0.2-0.4,0.2-0.6l0,0
		c0-0.2-0.1-0.5-0.2-0.6c-0.2-0.2-0.4-0.3-0.6-0.3c-0.2,0-0.5,0.1-0.6,0.3c-0.2,0.2-0.2,0.4-0.2,0.6c0,0.2,0.1,0.5,0.2,0.6
		C162.4,27.5,162.7,27.6,162.9,27.6L162.9,27.6z"/>
	<path fill-rule="evenodd" clip-rule="evenodd" fill="#52A7DD" d="M162.7,27.3h-0.2v-1.2h0.5c0.1,0,0.2,0,0.2,0
		c0.1,0,0.1,0.1,0.2,0.1c0,0.1,0,0.1,0,0.2l0,0c0,0.1,0,0.1,0,0.2c0,0.1-0.1,0.1-0.2,0.1c0,0-0.1,0-0.1,0l0.3,0.5h-0.2l-0.3-0.5
		h-0.2V27.3L162.7,27.3z M162.9,26.7c0,0,0.1,0,0.1,0c0,0,0.1,0,0.1,0c0,0,0-0.1,0.1-0.1c0,0,0,0,0-0.1c0,0,0-0.1,0-0.1
		c0,0,0,0-0.1-0.1c0,0-0.1,0-0.1,0l0,0h-0.3v0.4H162.9L162.9,26.7z"/>
</g>
</svg>
